{
	"asset":{
		"generator":"Khronos glTF Blender I/O v4.5.47",
		"version":"2.0"
	},
	"scene":0,
	"scenes":[
		{
			"name":"Scene",
			"nodes":[
				0,
				1,
				2,
				3
			]
		}
	],
	"nodes":[
		{
			"mesh":0,
			"name":"Onigiri",
			"rotation":[
				0.6831377744674683,
				-0.18254519999027252,
				0.18254518508911133,
				0.6831378936767578
			],
			"scale":[
				0.0513589046895504,
				0.029999999329447746,
				0.0513589009642601
			],
			"translation":[
				-0.014488395303487778,
				0.0740770548582077,
				-0.07497034966945648
			]
		},
		{
			"mesh":1,
			"name":"Onigiri.001",
			"rotation":[
				0.34506726264953613,
				0.21618624031543732,
				-0.0081598199903965,
				0.9133047461509705
			],
			"scale":[
				0.0513589009642601,
				0.029999997466802597,
				0.0513588972389698
			],
			"translation":[
				-0.03668335825204849,
				0.05991324409842491,
				0.04989983141422272
			]
		},
		{
			"mesh":2,
			"name":"Onigiri.002",
			"rotation":[
				0.0018251790897920728,
				0.2326003462076187,
				-0.0004365104832686484,
				0.9725705981254578
			],
			"scale":[
				0.0513588972389698,
				0.029963264241814613,
				0.0513586550951004
			],
			"translation":[
				-0.07673360407352448,
				0.04134667292237282,
				0.04141579568386078
			]
		},
		{
			"mesh":3,
			"name":"Plate",
			"scale":[
				0.17095643281936646,
				0.17095643281936646,
				0.17095643281936646
			],
			"translation":[
				-0.014488395303487778,
				0.028944917023181915,
				-0.020844534039497375
			]
		}
	],
	"materials":[
		{
			"doubleSided":true,
			"name":"Onigiri",
			"pbrMetallicRoughness":{
				"baseColorTexture":{
					"index":0
				},
				"metallicFactor":0,
				"roughnessFactor":0.5
			}
		}
	],
	"meshes":[
		{
			"name":"Plane",
			"primitives":[
				{
					"attributes":{
						"POSITION":0,
						"NORMAL":1,
						"TEXCOORD_0":2
					},
					"indices":3,
					"material":0
				}
			]
		},
		{
			"name":"Plane.008",
			"primitives":[
				{
					"attributes":{
						"POSITION":4,
						"NORMAL":5,
						"TEXCOORD_0":6
					},
					"indices":3,
					"material":0
				}
			]
		},
		{
			"name":"Plane.009",
			"primitives":[
				{
					"attributes":{
						"POSITION":7,
						"NORMAL":8,
						"TEXCOORD_0":9
					},
					"indices":3,
					"material":0
				}
			]
		},
		{
			"name":"Circle",
			"primitives":[
				{
					"attributes":{
						"POSITION":10,
						"NORMAL":11,
						"TEXCOORD_0":12
					},
					"indices":13
				}
			]
		}
	],
	"textures":[
		{
			"sampler":0,
			"source":0
		}
	],
	"images":[
		{
			"mimeType":"image/png",
			"name":"Onigiri",
			"uri":"Onigiri.png"
		}
	],
	"accessors":[
		{
			"bufferView":0,
			"componentType":5126,
			"count":148,
			"max":[
				1.1089586019515991,
				0.6561177968978882,
				0.9965323209762573
			],
			"min":[
				-1.0268696546554565,
				-0.6561177372932434,
				-1.054726004600525
			],
			"type":"VEC3"
		},
		{
			"bufferView":1,
			"componentType":5126,
			"count":148,
			"type":"VEC3"
		},
		{
			"bufferView":2,
			"componentType":5126,
			"count":148,
			"type":"VEC2"
		},
		{
			"bufferView":3,
			"componentType":5123,
			"count":228,
			"type":"SCALAR"
		},
		{
			"bufferView":4,
			"componentType":5126,
			"count":148,
			"max":[
				1.1089586019515991,
				0.6561177968978882,
				0.9965323209762573
			],
			"min":[
				-1.0268696546554565,
				-0.6561177372932434,
				-1.054726004600525
			],
			"type":"VEC3"
		},
		{
			"bufferView":5,
			"componentType":5126,
			"count":148,
			"type":"VEC3"
		},
		{
			"bufferView":6,
			"componentType":5126,
			"count":148,
			"type":"VEC2"
		},
		{
			"bufferView":7,
			"componentType":5126,
			"count":148,
			"max":[
				1.1089586019515991,
				0.6581804752349854,
				-0.009942889213562012
			],
			"min":[
				-1.0268696546554565,
				-0.6540550589561462,
				-2.0612010955810547
			],
			"type":"VEC3"
		},
		{
			"bufferView":8,
			"componentType":5126,
			"count":148,
			"type":"VEC3"
		},
		{
			"bufferView":9,
			"componentType":5126,
			"count":148,
			"type":"VEC2"
		},
		{
			"bufferView":10,
			"componentType":5126,
			"count":144,
			"max":[
				1,
				0.029999999329447746,
				1
			],
			"min":[
				-1,
				-0.16980087757110596,
				-1
			],
			"type":"VEC3"
		},
		{
			"bufferView":11,
			"componentType":5126,
			"count":144,
			"type":"VEC3"
		},
		{
			"bufferView":12,
			"componentType":5126,
			"count":144,
			"type":"VEC2"
		},
		{
			"bufferView":13,
			"componentType":5123,
			"count":228,
			"type":"SCALAR"
		}
	],
	"bufferViews":[
		{
			"buffer":0,
			"byteLength":1776,
			"byteOffset":0,
			"target":34962
		},
		{
			"buffer":0,
			"byteLength":1776,
			"byteOffset":1776,
			"target":34962
		},
		{
			"buffer":0,
			"byteLength":1184,
			"byteOffset":3552,
			"target":34962
		},
		{
			"buffer":0,
			"byteLength":456,
			"byteOffset":4736,
			"target":34963
		},
		{
			"buffer":0,
			"byteLength":1776,
			"byteOffset":5192,
			"target":34962
		},
		{
			"buffer":0,
			"byteLength":1776,
			"byteOffset":6968,
			"target":34962
		},
		{
			"buffer":0,
			"byteLength":1184,
			"byteOffset":8744,
			"target":34962
		},
		{
			"buffer":0,
			"byteLength":1776,
			"byteOffset":9928,
			"target":34962
		},
		{
			"buffer":0,
			"byteLength":1776,
			"byteOffset":11704,
			"target":34962
		},
		{
			"buffer":0,
			"byteLength":1184,
			"byteOffset":13480,
			"target":34962
		},
		{
			"buffer":0,
			"byteLength":1728,
			"byteOffset":14664,
			"target":34962
		},
		{
			"buffer":0,
			"byteLength":1728,
			"byteOffset":16392,
			"target":34962
		},
		{
			"buffer":0,
			"byteLength":1152,
			"byteOffset":18120,
			"target":34962
		},
		{
			"buffer":0,
			"byteLength":456,
			"byteOffset":19272,
			"target":34963
		}
	],
	"samplers":[
		{
			"magFilter":9728,
			"minFilter":9984
		}
	],
	"buffers":[
		{
			"byteLength":19728,
			"uri":"Onigiri%20Rice%20Balls%20psx.bin"
		}
	]
}
